<svg id="visual" viewBox="0 0 900 600" width="900" height="600" xmlns="http://www.w3.org/2000/svg" xmlns:xlink="http://www.w3.org/1999/xlink" version="1.1"><g><g transform="translate(232 290)"><path d="M12.7 -3.9C14.3 0.8 11.9 7 7.4 10.4C2.8 13.7 -4 14.2 -8.6 11.1C-13.2 7.9 -15.7 1 -13.9 -4C-12.1 -9 -6 -12.1 -0.3 -12C5.5 -12 11.1 -8.7 12.7 -3.9Z" fill="#008c83"></path></g><g transform="translate(346 218)"><path d="M8.2 -3C9.1 0.3 7.4 4.1 4.5 6.2C1.6 8.4 -2.5 8.8 -5.2 6.9C-7.9 5 -9.2 0.8 -8.1 -2.7C-7 -6.3 -3.5 -9.1 0.1 -9.1C3.6 -9.2 7.2 -6.3 8.2 -3Z" fill="#008c83"></path></g><g transform="translate(643 499)"><path d="M8.9 -3C9.9 0.1 7.9 4.1 4.7 6.4C1.5 8.8 -2.9 9.4 -5.8 7.4C-8.7 5.5 -10 0.9 -8.8 -2.6C-7.6 -6 -3.8 -8.3 0.1 -8.3C4 -8.4 7.9 -6.1 8.9 -3Z" fill="#008c83"></path></g><g transform="translate(399 123)"><path d="M11.3 -3.8C12.8 1.1 11.1 7 7 9.9C3 12.9 -3.2 13 -7.4 10C-11.6 7 -13.8 0.9 -12.2 -4.1C-10.6 -9.1 -5.3 -13 -0.2 -12.9C4.9 -12.9 9.7 -8.8 11.3 -3.8Z" fill="#008c83"></path></g><g transform="translate(218 556)"><path d="M8.3 -3C9.5 0.9 8.3 5.3 5.2 7.7C2.2 10 -2.7 10.2 -5.6 8.1C-8.5 5.9 -9.3 1.3 -8 -2.7C-6.8 -6.8 -3.4 -10.3 0.1 -10.3C3.6 -10.3 7.1 -6.9 8.3 -3Z" fill="#008c83"></path></g><g transform="translate(735 434)"><path d="M7.8 -2.4C8.8 0.7 7.6 4.7 4.8 6.7C2.1 8.7 -2.1 8.7 -4.7 6.7C-7.3 4.8 -8.4 0.9 -7.3 -2.3C-6.3 -5.4 -3.1 -7.8 0.1 -7.8C3.4 -7.9 6.7 -5.6 7.8 -2.4Z" fill="#008c83"></path></g><g transform="translate(411 305)"><path d="M8.1 -2.7C9.2 0.7 7.9 4.9 4.8 7.4C1.7 9.8 -3.3 10.5 -6.3 8.4C-9.4 6.3 -10.5 1.2 -9.2 -2.6C-7.8 -6.4 -3.9 -9.1 -0.2 -9C3.5 -9 7 -6.2 8.1 -2.7Z" fill="#008c83"></path></g><g transform="translate(149 49)"><path d="M10.7 -3.6C12.1 1 10.4 6.5 6.5 9.6C2.5 12.6 -3.7 13.1 -7.6 10.3C-11.5 7.5 -13.1 1.4 -11.4 -3.5C-9.8 -8.3 -4.9 -11.9 -0.1 -11.8C4.6 -11.8 9.2 -8.1 10.7 -3.6Z" fill="#008c83"></path></g><g transform="translate(841 336)"><path d="M7.9 -2.6C8.7 0.2 7 3.7 4.3 5.6C1.6 7.6 -2.1 7.8 -4.6 6.1C-7.1 4.3 -8.3 0.6 -7.4 -2.2C-6.4 -5.1 -3.2 -7.1 0.1 -7.1C3.5 -7.2 7 -5.3 7.9 -2.6Z" fill="#008c83"></path></g><g transform="translate(361 152)"><path d="M9.4 -3.2C10.8 1.4 9.7 6.6 6.2 9.3C2.8 11.9 -3 12 -6.9 9.2C-10.8 6.5 -12.8 0.8 -11.3 -3.8C-9.8 -8.4 -4.9 -11.9 -0.5 -11.8C4 -11.6 7.9 -7.7 9.4 -3.2Z" fill="#008c83"></path></g><g transform="translate(815 131)"><path d="M10.6 -3.4C11.8 0.4 9.6 5.3 6.1 7.8C2.5 10.2 -2.4 10.2 -5.8 7.8C-9.2 5.4 -11 0.6 -9.8 -3.2C-8.5 -7 -4.3 -9.8 0.2 -9.9C4.7 -10 9.3 -7.3 10.6 -3.4Z" fill="#008c83"></path></g><g transform="translate(691 261)"><path d="M10.4 -3.3C11.6 0.4 9.5 5.2 5.8 7.8C2.2 10.4 -2.9 10.7 -6.2 8.4C-9.4 6.1 -10.9 1 -9.5 -2.8C-8.2 -6.7 -4.1 -9.4 0.2 -9.5C4.6 -9.6 9.2 -7 10.4 -3.3Z" fill="#008c83"></path></g><g transform="translate(147 109)"><path d="M8.1 -2.6C9.3 1.3 8.4 5.8 5.7 7.9C2.9 9.9 -1.7 9.3 -4.9 7C-8.1 4.6 -9.9 0.4 -8.9 -3.2C-7.8 -6.8 -3.9 -9.9 -0.3 -9.8C3.4 -9.7 6.8 -6.5 8.1 -2.6Z" fill="#008c83"></path></g><g transform="translate(72 352)"><path d="M6.3 -2C7.1 0.2 5.8 3.2 3.5 4.8C1.3 6.4 -1.8 6.6 -4 5.1C-6.1 3.7 -7.2 0.5 -6.4 -1.9C-5.5 -4.2 -2.8 -5.8 0 -5.8C2.8 -5.8 5.6 -4.2 6.3 -2Z" fill="#008c83"></path></g><g transform="translate(97 262)"><path d="M8.2 -3C9.2 0.5 7.6 4.4 4.6 6.7C1.7 8.9 -2.8 9.4 -5.6 7.4C-8.5 5.4 -9.7 0.9 -8.5 -2.8C-7.3 -6.4 -3.7 -9.3 0 -9.3C3.6 -9.3 7.1 -6.4 8.2 -3Z" fill="#008c83"></path></g></g></svg>