<?xml version="1.0" standalone="no"?>
<!DOCTYPE svg PUBLIC "-//W3C//DTD SVG 20010904//EN"
 "http://www.w3.org/TR/2001/REC-SVG-20010904/DTD/svg10.dtd">
<svg version="1.0" xmlns="http://www.w3.org/2000/svg"
 width="245.000000pt" height="220.000000pt" viewBox="0 0 245.000000 220.000000"
 preserveAspectRatio="xMidYMid meet">

<g transform="translate(0.000000,220.000000) scale(0.100000,-0.100000)"
fill="#000000" stroke="none">
<path d="M132 2075 c-11 -12 -10 -15 3 -15 8 0 15 4 15 9 0 5 10 12 23 14 21
4 20 4 -3 5 -14 1 -31 -5 -38 -13z"/>
<path d="M1003 2083 c9 -2 25 -2 35 0 9 3 1 5 -18 5 -19 0 -27 -2 -17 -5z"/>
<path d="M90 2022 c0 -22 4 -43 9 -46 5 -3 11 -18 14 -33 3 -16 15 -59 27 -98
24 -77 57 -213 70 -290 19 -113 58 -265 71 -279 5 -6 9 -19 9 -30 0 -21 17
-80 31 -108 5 -10 9 -27 9 -37 0 -11 5 -23 10 -26 6 -3 10 -15 10 -25 0 -11
14 -49 30 -85 17 -36 30 -68 30 -70 0 -15 150 -261 198 -325 190 -252 445
-438 682 -496 137 -34 328 -28 448 13 68 22 215 93 209 99 -3 3 -16 0 -29 -7
-32 -17 -124 -41 -178 -45 -42 -3 -43 -3 -15 7 17 5 45 12 63 15 19 2 52 14
75 25 85 44 240 152 286 200 61 64 136 213 151 299 36 205 -10 501 -90 582
-20 19 -42 29 -79 34 -28 4 -54 10 -56 14 -3 5 -12 44 -20 88 -9 44 -22 98
-30 119 -9 21 -13 27 -11 13 27 -146 29 -174 21 -360 -13 -301 -13 -330 -5
-400 16 -131 20 -195 11 -175 -21 50 -43 305 -40 460 1 88 2 189 1 225 l-2 65
-44 27 c-54 32 -167 64 -259 74 -38 3 -70 12 -72 18 -1 6 -10 44 -19 85 -9 41
-24 90 -33 110 -23 49 -97 164 -118 181 -9 7 1 -13 22 -46 79 -120 112 -239
119 -439 4 -112 1 -163 -15 -255 l-19 -115 136 -132 c75 -73 133 -133 127
-133 -5 0 -28 17 -50 38 -95 88 -115 99 -66 37 20 -25 -126 110 -199 185 -30
30 -87 79 -125 109 -39 29 -92 74 -119 99 -47 44 -84 75 -138 114 -12 10 -84
64 -158 120 -250 191 -430 315 -430 298 0 -5 10 -16 22 -24 26 -19 25 -20 -32
-39 -25 -9 -96 -34 -157 -56 -98 -35 -113 -38 -113 -23 0 9 -5 24 -11 32 -7
11 -8 4 -3 -25 4 -22 8 -43 10 -47 7 -11 142 31 253 79 l104 44 51 -50 c28
-27 101 -91 161 -143 61 -51 119 -101 130 -111 11 -11 40 -33 63 -50 42 -30
43 -32 20 -38 -36 -11 -194 -10 -293 1 -131 15 -237 45 -352 100 -57 27 -103
45 -103 41 0 -4 15 -53 34 -109 18 -55 31 -104 28 -107 -3 -3 -1 -5 4 -5 5 0
16 -20 23 -44 24 -81 21 -80 187 -85 91 -2 176 1 219 9 64 11 223 61 337 106
50 19 76 12 44 -11 -30 -23 -155 -72 -251 -100 -130 -37 -261 -50 -386 -37
-57 6 -104 10 -106 9 -6 -7 27 -79 60 -130 20 -31 37 -64 37 -72 0 -8 5 -15
10 -15 6 0 10 -6 10 -12 0 -7 16 -33 35 -57 19 -24 35 -52 35 -62 0 -10 6 -22
14 -26 7 -4 39 -39 71 -78 32 -38 96 -106 142 -151 82 -80 93 -97 72 -109 -16
-10 -60 36 -54 56 3 10 -1 19 -11 23 -12 4 -15 2 -10 -9 11 -29 -8 -14 -78 62
-91 98 -175 201 -189 233 -6 14 -19 34 -28 45 -49 57 -145 260 -195 410 -70
215 -130 477 -118 519 4 17 3 18 -5 6 -9 -13 -11 -12 -12 5 -1 24 2 14 -57
212 -26 89 -51 165 -55 169 -4 4 -7 -11 -7 -34z m680 -1367 c284 -83 572 -86
840 -9 96 27 146 32 90 7 -61 -26 -192 -61 -279 -74 -56 -8 -143 -10 -255 -6
-142 5 -193 11 -296 36 -153 37 -232 63 -238 81 -3 7 -1 10 4 7 5 -3 66 -22
134 -42z m1274 -151 c3 -8 2 -12 -4 -9 -6 3 -10 10 -10 16 0 14 7 11 14 -7z
m101 -94 c3 -5 1 -10 -4 -10 -6 0 -11 5 -11 10 0 6 2 10 4 10 3 0 8 -4 11 -10z
m-1152 -110 c5 0 7 -9 4 -20 -6 -22 8 -28 16 -7 3 6 6 2 6 -10 1 -21 -1 -22
-25 -11 -15 7 -21 14 -15 16 18 6 13 19 -15 37 -22 14 -28 15 -36 4 -7 -11 -8
-9 -4 4 3 10 6 23 6 27 0 5 12 -2 26 -15 15 -14 31 -25 37 -25z m62 -70 c3 -5
1 -10 -4 -10 -6 0 -11 5 -11 10 0 6 2 10 4 10 3 0 8 -4 11 -10z m485 -124 c0
-2 -7 -6 -15 -10 -8 -3 -15 -1 -15 4 0 6 7 10 15 10 8 0 15 -2 15 -4z"/>
<path d="M1248 2043 c7 -3 16 -2 19 1 4 3 -2 6 -13 5 -11 0 -14 -3 -6 -6z"/>
<path d="M1345 2020 c-3 -5 1 -10 10 -10 9 0 13 5 10 10 -3 6 -8 10 -10 10 -2
0 -7 -4 -10 -10z"/>
<path d="M1079 1965 c106 -122 151 -248 159 -442 5 -134 -2 -223 -18 -223 -5
0 -11 9 -15 19 -3 10 -15 21 -26 24 -12 3 -19 9 -16 14 3 4 -2 17 -10 28 -15
19 -15 19 -9 1 7 -20 7 -20 -16 0 -13 10 -26 23 -29 27 -3 5 -10 9 -15 9 -5 1
-25 12 -44 26 -73 54 -98 71 -207 145 -62 42 -113 75 -113 73 0 -2 69 -53 153
-112 165 -117 267 -199 512 -412 l160 -139 13 86 c14 92 11 337 -4 351 -5 5
-65 -2 -134 -16 -69 -13 -128 -24 -131 -24 -3 0 -9 51 -12 113 -9 199 -91 379
-217 482 -13 11 -5 -2 19 -30z"/>
<path d="M1398 2003 c6 -2 18 -2 25 0 6 3 1 5 -13 5 -14 0 -19 -2 -12 -5z"/>
<path d="M1660 1916 c0 -2 7 -7 16 -10 8 -3 12 -2 9 4 -6 10 -25 14 -25 6z"/>
<path d="M1780 1851 c14 -11 41 -28 60 -37 48 -23 243 -221 318 -322 63 -83
94 -137 117 -201 13 -34 14 -34 14 -9 1 43 -80 191 -133 244 -12 11 -48 52
-81 89 -107 123 -195 195 -295 244 l-25 12 25 -20z"/>
<path d="M415 1539 c-98 -33 -145 -53 -145 -61 0 -6 8 -7 18 -3 9 4 40 16 69
26 53 18 115 48 98 48 -5 0 -23 -5 -40 -10z"/>
<path d="M2300 1247 c0 -4 6 -24 14 -44 39 -109 56 -317 37 -442 -17 -111 -91
-317 -130 -364 -19 -23 -9 -31 13 -9 36 36 89 141 122 239 30 91 34 113 34
212 0 111 -14 198 -51 326 -18 60 -39 105 -39 82z"/>
<path d="M2321 754 c0 -11 3 -14 6 -6 3 7 2 16 -1 19 -3 4 -6 -2 -5 -13z"/>
<path d="M860 372 c0 -4 9 -13 20 -19 14 -9 21 -10 26 -1 4 6 3 8 -3 5 -6 -4
-13 0 -17 8 -6 15 -26 21 -26 7z"/>
</g>
</svg>
