<svg version="1.0" xmlns="http://www.w3.org/2000/svg"
 width="116.000000pt" height="162.000000pt" viewBox="0 0 116.000000 162.000000"
 preserveAspectRatio="xMidYMid meet">
<g transform="translate(0.000000,162.000000) scale(0.100000,-0.100000)"
fill="#c7d5da" stroke="none">
<path d="M388 1592 l-358 -2 0 -791 0 -791 33 7 c64 14 162 68 212 119 57 56
96 131 115 217 14 62 10 305 -5 329 -6 10 -20 0 -56 -41 -39 -43 -51 -51 -61
-41 -10 10 -9 22 6 60 43 111 43 107 2 159 -40 52 -54 89 -38 105 14 14 42 -6
85 -65 l38 -50 92 -1 c115 -1 124 -19 30 -55 -35 -14 -63 -28 -63 -33 0 -4 17
-16 38 -27 131 -67 304 -71 427 -9 166 83 267 246 267 430 0 216 -126 387
-337 459 -69 24 -73 24 -427 21z"/>
</g>
</svg>